<?xml version="1.0" standalone="no"?>
<!DOCTYPE svg PUBLIC "-//W3C//DTD SVG 20010904//EN"
 "http://www.w3.org/TR/2001/REC-SVG-20010904/DTD/svg10.dtd">
<svg version="1.0" xmlns="http://www.w3.org/2000/svg"
 width="112.000000pt" height="114.000000pt" viewBox="0 0 112.000000 114.000000"
 preserveAspectRatio="xMidYMid meet">

<g transform="translate(0.000000,114.000000) scale(0.100000,-0.100000)"
fill="#000000" stroke="none">
<path d="M236 989 l-26 -20 0 -339 0 -339 26 -20 c23 -18 41 -21 125 -21 108
0 141 10 158 47 7 16 11 129 11 339 l0 316 -29 29 c-29 28 -32 29 -134 29 -90
0 -108 -3 -131 -21z"/>
<path d="M694 991 c-145 -66 -143 -278 4 -343 122 -54 262 36 262 170 0 56
-15 90 -58 135 -56 58 -133 72 -208 38z"/>
<path d="M743 467 c-90 -89 -163 -168 -163 -174 0 -6 7 -19 16 -27 12 -13 41
-16 154 -16 149 0 181 7 199 47 6 14 11 82 11 163 0 113 -3 142 -16 154 -8 9
-21 16 -27 16 -6 0 -85 -73 -174 -163z"/>
</g>
</svg>
